<?xml version="1.0" encoding="iso-8859-1"?>
<!-- Generator: Adobe Illustrator 19.0.0, SVG Export Plug-In . SVG Version: 6.00 Build 0)  -->
<svg version="1.1" id="Layer_1" xmlns="http://www.w3.org/2000/svg" xmlns:xlink="http://www.w3.org/1999/xlink" x="0px" y="0px"
	 viewBox="0 0 512 512" style="enable-background:new 0 0 512 512;" xml:space="preserve">
<path style="fill:#754C24;" d="M343.771,483.788h68.898c15.485,0,27.232-12.553,27.232-28.038V191.391
	c0-15.485,13.359-28.387,28.844-28.387h8.011c15.485,0,27.928-12.204,27.928-27.69V55.205c0-15.484-10.669-28.038-26.155-28.038
	H343.771"/>
<path style="fill:#936037;" d="M478.531,27.167h-74.33c15.485,0,28.387,12.553,28.387,28.038v80.109
	c0,15.485-12.901,27.69-28.387,27.69h-8.011c-15.484,0-28.386,12.901-28.386,28.387V455.75c0,14.113-10.449,25.675-24.033,27.634
	v0.403h68.898c15.485,0,27.232-12.553,27.232-28.038V191.391c0-15.485,13.359-28.387,28.844-28.387h8.011
	c15.485,0,27.928-12.204,27.928-27.69V55.205C504.686,39.721,494.016,27.167,478.531,27.167z"/>
<path id="SVGCleanerId_0" d="M35.701,35.004c-11.139,0-20.201,9.062-20.201,20.201v80.109c0,11.14,9.062,20.201,20.201,20.201
	c19.782,0,35.874,16.094,35.874,35.874v264.359c0,11.14,9.062,20.201,20.201,20.201h248.338c11.139,0,20.201-9.062,20.201-20.201
	V191.39c0-19.781,16.094-35.874,35.876-35.874h8.01c11.14,0,20.202-9.062,20.202-20.201V55.205c0-11.14-9.062-20.201-20.202-20.201
	H35.701z"/>
<path style="fill:#754C24;" d="M478.531,27.167h-32.044c15.485,0,25.807,12.553,25.807,28.038v80.109
	c0,15.485-12.095,27.69-27.58,27.69h-8.011c-15.485,0-28.147,12.901-28.147,28.387V455.75c0,15.485-12.444,28.038-27.928,28.038
	h32.044c15.485,0,27.232-12.553,27.232-28.038V191.391c0-15.485,13.359-28.387,28.844-28.387h8.011
	c15.485,0,27.928-12.204,27.928-27.69V55.205C504.686,39.721,494.016,27.167,478.531,27.167z"/>
<path style="fill:#A67C52;" d="M404.201,27.167h-368.5c-15.485,0-28.039,12.553-28.039,28.038v80.109
	c0,15.485,12.553,28.038,28.038,28.038l0,0c15.485,0,28.038,12.553,28.038,28.038v264.359c0.001,15.485,12.554,28.039,28.039,28.039
	h248.338c15.485,0,28.038-12.553,28.038-28.038V191.391c0-15.485,12.553-28.038,28.038-28.038h8.011
	c15.485,0,28.038-12.553,28.038-28.038v-80.11C432.24,39.721,419.686,27.167,404.201,27.167z"/>
<g>
	<path id="SVGCleanerId_0_1_" d="M35.701,35.004c-11.139,0-20.201,9.062-20.201,20.201v80.109c0,11.14,9.062,20.201,20.201,20.201
		c19.782,0,35.874,16.094,35.874,35.874v264.359c0,11.14,9.062,20.201,20.201,20.201h248.338c11.139,0,20.201-9.062,20.201-20.201
		V191.39c0-19.781,16.094-35.874,35.876-35.874h8.01c11.14,0,20.202-9.062,20.202-20.201V55.205c0-11.14-9.062-20.201-20.202-20.201
		H35.701z"/>
</g>
<path style="fill:#A67C52;" d="M404.201,28.212h-368.5c-15.485,0-28.387,11.509-28.387,26.993v80.109
	c0,15.485,12.204,28.038,27.69,28.038s27.69,12.553,27.69,28.039V455.75c0,15.484,13.598,29.083,29.083,29.083h248.338
	c15.485,0,27.69-13.598,27.69-29.083V191.391c0-15.485,12.901-27.342,28.387-27.342h8.011c15.485,0,27.342-13.249,27.342-28.735
	V55.205C431.543,39.721,419.686,28.212,404.201,28.212z"/>
<path style="fill:#C69C6D;" d="M386.827,139.319L386.827,139.319c11.807,0,21.379-9.571,21.379-21.379V72.579
	c0-11.807-9.571-21.379-21.379-21.379H53.075c-11.807,0-21.379,9.571-21.379,21.379v45.362c0,11.807,9.571,21.379,21.379,21.379l0,0
	c19.162,0,34.697,15.534,34.697,34.698v268.662c0,9.43,7.646,17.076,17.076,17.076h222.196c9.431,0,17.076-7.646,17.076-17.076
	V182.027C344.119,158.441,363.241,139.319,386.827,139.319z"/>
<path d="M327.044,467.592H104.847c-13.736,0-24.912-11.176-24.912-24.912V174.017c0-14.81-12.05-26.86-26.86-26.86
	c-16.109,0-29.215-13.106-29.215-29.215V72.579c0-16.109,13.106-29.215,29.215-29.215h333.753c16.11,0,29.216,13.106,29.216,29.215
	v45.362c0,16.109-13.106,29.215-29.216,29.215c-19.228,0-34.871,15.643-34.871,34.871v260.652
	C351.956,456.416,340.781,467.592,327.044,467.592z M53.075,59.037c-7.467,0-13.542,6.075-13.542,13.542v45.362
	c0,7.467,6.075,13.542,13.542,13.542c23.453,0,42.534,19.081,42.534,42.534v268.662c0,5.094,4.145,9.239,9.239,9.239h222.196
	c5.094,0,9.239-4.145,9.239-9.239V182.027c0-27.871,22.674-50.545,50.545-50.545c7.467,0,13.543-6.075,13.543-13.542V72.579
	c0-7.467-6.075-13.542-13.543-13.542H53.075z"/>
<g>
	<rect x="144.196" y="140.016" style="fill:#603813;" width="15.673" height="15.673"/>
	<rect x="192.261" y="115.984" style="fill:#603813;" width="15.673" height="15.673"/>
	<rect x="199.576" y="75.233" style="fill:#603813;" width="16.718" height="15.673"/>
	<rect x="216.294" y="171.363" style="fill:#603813;" width="15.673" height="15.673"/>
	<rect x="120.163" y="260.18" style="fill:#603813;" width="15.673" height="15.673"/>
	<rect x="175.543" y="308.245" style="fill:#603813;" width="16.718" height="15.673"/>
	<rect x="231.967" y="267.494" style="fill:#603813;" width="15.673" height="15.673"/>
	<rect x="175.543" y="219.429" style="fill:#603813;" width="16.718" height="15.673"/>
	<rect x="63.739" y="91.951" style="fill:#603813;" width="15.673" height="15.673"/>
	<rect x="111.804" y="75.233" style="fill:#603813;" width="15.673" height="15.673"/>
	<rect x="111.804" y="131.657" style="fill:#603813;" width="15.673" height="15.673"/>
	<rect x="336.457" y="107.624" style="fill:#603813;" width="15.673" height="15.673"/>
	<rect x="280.033" y="83.592" style="fill:#603813;" width="15.673" height="15.673"/>
	<rect x="271.673" y="140.016" style="fill:#603813;" width="16.718" height="15.673"/>
	<rect x="271.673" y="203.755" style="fill:#603813;" width="16.718" height="15.673"/>
	<rect x="280.033" y="308.245" style="fill:#603813;" width="15.673" height="15.673"/>
	<rect x="216.294" y="363.624" style="fill:#603813;" width="15.673" height="15.673"/>
	<rect x="280.033" y="411.69" style="fill:#603813;" width="15.673" height="15.673"/>
	<rect x="175.543" y="420.049" style="fill:#603813;" width="16.718" height="15.673"/>
	<rect x="111.804" y="363.624" style="fill:#603813;" width="15.673" height="15.673"/>
	<rect x="168.229" y="387.657" style="fill:#603813;" width="15.673" height="15.673"/>
	<rect x="304.065" y="371.984" style="fill:#603813;" width="15.673" height="15.673"/>
	<rect x="360.49" y="67.918" style="fill:#603813;" width="15.673" height="15.673"/>
</g>
<rect x="391.837" y="356.31" width="16.718" height="15.673"/>
<path d="M478.531,19.853h-74.33h-60.43H35.701C15.682,19.853,0,35.381,0,55.205v80.109c0,19.782,15.937,35.874,35.527,35.874
	c11.132,0,19.853,8.873,19.853,20.201v264.359c0,19.73,16.668,36.398,36.397,36.398H412.67c19.625,0,35.591-16.328,35.591-36.397
	V191.391c0-10.921,8.992-19.814,20.116-20.009l3.952-0.019h4.427c19.433,0,35.243-16.172,35.243-36.049V55.205
	C512,34.721,497.924,19.853,478.531,19.853z M360.49,455.75c0,11.234-9.331,20.723-20.376,20.723H91.777
	c-11.233,0-20.723-9.491-20.723-20.723V191.391c0-19.781-15.937-35.874-35.527-35.874c-11.132,0-19.853-8.873-19.853-20.201v-80.11
	c0-11.035,8.797-19.679,20.028-19.679h308.07h60.43c11.231,0,20.028,8.643,20.028,19.679v80.109
	c0,11.235-8.985,20.376-20.028,20.376c0,0-11.47,0.132-13.148,0.375l-0.452,0.066c-17.039,2.692-30.111,17.476-30.111,35.26V455.75z
	 M412.67,476.473h-42.945c4.053-5.886,6.439-13.028,6.439-20.723v-44.06h39.706v-15.673h-39.706v-96.131h32.392v-15.673h-32.392
	v-56.424h15.673v-15.673h-15.673v-20.723c0-9.898,6.837-17.897,16.148-19.658l46.412-0.214c-1.72,2.524-3.114,5.28-4.142,8.205
	h-18.712v15.673h16.718v48.065h-40.751v15.673h40.751v64.784h-32.392v15.673h32.392v96.131h-32.392v15.673h32.392v4.354
	C432.588,467.177,423.653,476.473,412.67,476.473z M496.327,115.984h-32.392v15.673h32.392v3.657
	c0,11.426-8.596,20.376-19.57,20.376h-8.011c-0.266,0-0.529,0.015-0.793,0.02l-34.447,0.159c4.027-5.836,6.397-12.919,6.397-20.554
	V99.265h32.392V83.592h-32.392V55.205c0-7.339-2.154-14.087-5.878-19.679h44.506c7.931,0,15.904,4.896,17.492,15.673h-23.729v15.673
	h24.033V115.984z"/>
<g>
</g>
<g>
</g>
<g>
</g>
<g>
</g>
<g>
</g>
<g>
</g>
<g>
</g>
<g>
</g>
<g>
</g>
<g>
</g>
<g>
</g>
<g>
</g>
<g>
</g>
<g>
</g>
<g>
</g>
</svg>
